<?xml version="1.0" encoding="UTF-8"?>
<svg version="1.1" xmlns="http://www.w3.org/2000/svg" width="512" height="512">
<path d="M0 0 C29.67497755 28.53149434 49.43058516 69.23297682 50.47265625 110.671875 C50.74153346 127.64969809 50.10862104 143.89170319 46.234375 160.515625 C46.05245605 161.29776367 45.87053711 162.07990234 45.68310547 162.88574219 C42.90156827 174.32509357 38.34768169 184.9411849 33.234375 195.515625 C32.69039063 196.64613281 32.14640625 197.77664063 31.5859375 198.94140625 C24.00303318 213.79280178 13.83955465 226.64327575 2.234375 238.515625 C1.59628906 239.21558594 0.95820313 239.91554688 0.30078125 240.63671875 C-24.08859591 266.76431432 -59.99936939 281.44776103 -94.765625 286.515625 C-95.66925781 286.64839844 -96.57289063 286.78117187 -97.50390625 286.91796875 C-141.3581119 292.02380131 -186.2261404 278.70502627 -220.765625 251.515625 C-224.79102454 248.15070055 -228.59988306 244.57757878 -232.34277344 240.90332031 C-233.6638823 239.61485381 -235.01446171 238.35679454 -236.3671875 237.1015625 C-263.96269845 210.90772829 -282.00389682 170.16832872 -283.02957153 132.12744141 C-283.09238453 128.33971888 -283.09662415 124.55374577 -283.078125 120.765625 C-283.07596985 119.97026337 -283.0738147 119.17490173 -283.07159424 118.35543823 C-283.02142678 106.81996819 -282.6612961 95.73635052 -279.765625 84.515625 C-279.57226562 83.71801758 -279.37890625 82.92041016 -279.1796875 82.09863281 C-268.44143009 38.39989085 -242.19667926 1.57981492 -203.890625 -22.171875 C-183.33845778 -34.56842031 -161.46925493 -41.87987385 -137.765625 -45.484375 C-136.76789063 -45.63648437 -135.77015625 -45.78859375 -134.7421875 -45.9453125 C-85.26824411 -51.71987372 -35.98257404 -33.72188876 0 0 Z " fill="#3D54BC" transform="translate(373.765625,135.484375)"/>
<path d="M0 0 C0.01417969 0.7734375 0.02835937 1.546875 0.04296875 2.34375 C0.35158587 9.08328071 0.84658779 15.18577204 6 20 C12.30867752 24.42293693 18.43307862 24.55783597 25.9375 24.5625 C40.71525616 24.62703169 40.71525616 24.62703169 47 28 C49.71758011 32.07637017 49.74180038 35.29763061 49 40 C47.29001203 45.1299639 45.16837292 50.05019952 43 55 C42.07869277 57.16469749 41.16160416 59.33119847 40.25 61.5 C39.86328125 62.3971875 39.4765625 63.294375 39.078125 64.21875 C36.76177597 70.19425909 35.74156008 75.32671246 35.8125 81.75 C35.81894531 83.04421875 35.82539063 84.3384375 35.83203125 85.671875 C35.8509351 88.99948379 35.8509351 88.99948379 37 92 C41.43709646 93.47903215 45.94734763 92.96887145 50.57617188 92.78515625 C55.48151642 92.69040859 58.76069139 93.24220469 63 96 C66.73658722 101.60488083 65.74683645 109.52544744 64.66162109 116.02734375 C58.59918478 144.20428443 38.53840129 178.53194153 15.203125 195.70703125 C11.55732082 197.84667874 9.24222755 198.28760865 5 198 C1.19909634 194.58893261 0.12934527 191.37029099 -0.1418457 186.40063477 C-0.1586438 184.93581665 -0.1586438 184.93581665 -0.17578125 183.44140625 C-0.62563062 159.94754896 -2.1880088 129.68516162 -19.30859375 111.40234375 C-24.12137284 107.41207194 -29.31836376 105.56996563 -35.58251953 105.69946289 C-40.82071232 106.35066622 -45.77339808 108.24290622 -50.75 109.9375 C-52.97368599 110.67660114 -55.19763351 111.41491602 -57.421875 112.15234375 C-58.39737305 112.48226318 -59.37287109 112.81218262 -60.37792969 113.15209961 C-70.98389151 116.58175561 -83.78290302 116.54093199 -94 112 C-89.03781066 76.40912473 -63.13359413 42.61604099 -35.75 20.8125 C-7.69090347 0 -7.69090347 0 0 0 Z " fill="#6AC03C" transform="translate(190,103)"/>
<path d="M0 0 C6.42424963 0.55835137 12.27604622 1.67979945 18.4375 3.5625 C19.30004395 3.82498535 20.16258789 4.0874707 21.05126953 4.35791016 C46.04314973 12.22868507 68.12260287 25.89573859 87 44 C87.81726563 44.76570313 88.63453125 45.53140625 89.4765625 46.3203125 C116.36074328 72.20570018 135.9910774 112.0704037 137.07788086 149.69628906 C137.09791421 152.63154549 137.08753786 155.56479289 137.0625 158.5 C137.05798828 159.51320312 137.05347656 160.52640625 137.04882812 161.5703125 C137.03714593 164.04693827 137.02076582 166.52343657 137 169 C125.70622744 173.18287873 115.07034252 174.32809979 103.0625 174.25 C101.87720703 174.25773438 100.69191406 174.26546875 99.47070312 174.2734375 C88.64706559 174.24968843 78.43818667 173.50804359 68.75 168.375 C68.0696167 168.02018555 67.3892334 167.66537109 66.68823242 167.29980469 C57.78197953 162.4680637 52.41966016 156.82507684 48.84765625 147.2109375 C44.4777608 130.65769298 53.00668275 117.73294059 61 104 C62.61282972 100.77434056 62.26787069 97.29059192 62.3125 93.75 C62.34150391 92.99847656 62.37050781 92.24695313 62.40039062 91.47265625 C62.46041381 86.18138207 61.6091887 83.12130331 58 79 C55.5365529 77.23234797 55.5365529 77.23234797 52.6875 76 C51.63046875 75.50371094 50.5734375 75.00742188 49.484375 74.49609375 C46.4610194 73.19794891 43.42665618 71.98151253 40.35668945 70.80126953 C26.37875773 65.42062821 15.57753794 58.7245693 9.20068359 44.7512207 C5.30357408 35.82146732 3.09836497 27.27354603 1.75 17.625 C1.57726562 16.47644531 1.40453125 15.32789062 1.2265625 14.14453125 C0.52873798 9.38714025 -0.10339316 4.81658133 0 0 Z " fill="#6AC03C" transform="translate(287,92)"/>
<path d="M0 0 C0.81662109 -0.02900391 1.63324219 -0.05800781 2.47460938 -0.08789062 C8.98016334 -0.15527883 14.42497096 1.21707113 19.25097656 5.79589844 C24.3308575 11.63397056 23.96432523 16.95533708 23.6875 24.3125 C23.35416667 26.3125 23.02083333 28.3125 22.6875 30.3125 C22.11076954 37.34208255 22.04181634 43.63889208 26.6875 49.3125 C31.62852586 53.90245297 38.02674201 53.82469407 44.42773438 53.71313477 C64.23797539 52.89225586 83.10314521 44.32418558 100.84692383 36.1328125 C112.20024092 30.96003765 123.62517424 27.00572617 136.125 30.1875 C141.69557909 34.80700461 143.67543735 41.12629068 144.49269104 48.13581848 C144.79624334 51.52753455 144.81095436 54.91087392 144.78515625 58.3125 C144.78303383 59.39422485 144.78303383 59.39422485 144.78086853 60.49780273 C144.77533381 62.76941324 144.76279423 65.04092 144.75 67.3125 C144.74497654 68.86588398 144.74041512 70.41926952 144.73632812 71.97265625 C144.72538589 75.75264328 144.7081676 79.53255414 144.6875 83.3125 C108.78204615 99.17185731 64.02382723 96.18535102 28.00756836 82.51342773 C6.89491062 74.18829785 -11.654794 62.63735759 -27.88964844 46.70019531 C-29.2107573 45.41172881 -30.56133671 44.15366954 -31.9140625 42.8984375 C-37.09476252 37.98088415 -41.55268253 32.66899171 -45.875 27 C-46.40037354 26.31776367 -46.92574707 25.63552734 -47.46704102 24.93261719 C-50.05004958 21.45780984 -51.95931005 18.76613912 -52.3125 14.3125 C-39.8712664 8.69792314 -27.62727279 4.34137816 -14.3125 1.3125 C-13.50167969 1.11140625 -12.69085938 0.9103125 -11.85546875 0.703125 C-7.9088876 0.09689134 -3.98760758 0.04654795 0 0 Z " fill="#6ABF3C" transform="translate(169.3125,329.6875)"/>
<path d="M0 0 C0.52368164 0.42216797 1.04736328 0.84433594 1.58691406 1.27929688 C14.82099094 11.96619563 26.6454352 23.73793382 36.80664062 37.39648438 C37.90532037 38.87277909 39.02215514 40.33551657 40.140625 41.796875 C64.70331521 74.48265961 82.59094041 119.58422873 81 161 C79.6464509 163.5717433 78.74892912 164.65049974 76.125 165.875 C72.94346969 166.06214884 71.64637512 165.88031916 69 164 C67.17290559 158.22529385 66.69588147 151.95842963 66.01269531 145.96020508 C60.08631123 94.29121232 34.23617668 45.53277266 -6.27392578 12.54760742 C-9.13279718 10.29488146 -12.05027138 8.13187563 -15 6 C-15.56058105 5.58975586 -16.12116211 5.17951172 -16.69873047 4.75683594 C-59.83651791 -26.47447707 -114.54179331 -38.79859001 -166.99755859 -30.52734375 C-208.11555936 -23.33352537 -244.91162976 -4.81494512 -275 24 C-275.49886719 24.47163574 -275.99773437 24.94327148 -276.51171875 25.42919922 C-284.50439292 33.01350733 -291.50921165 41.09751889 -298 50 C-298.41991211 50.57556641 -298.83982422 51.15113281 -299.27246094 51.74414062 C-314.33528139 72.69804074 -324.72152504 96.34265912 -330.9230957 121.33789062 C-332.52885714 127.49999266 -332.52885714 127.49999266 -334.9765625 130.09765625 C-337.94400273 131.42097419 -339.93159679 130.86715743 -343 130 C-345 128 -345 128 -345.28125 124.484375 C-345.14702757 119.51367082 -343.9137983 114.99313719 -342.5 110.25 C-342.23300293 109.33968018 -341.96600586 108.42936035 -341.69091797 107.49145508 C-327.79088605 61.46099531 -299.22098399 20.90306346 -260 -7 C-259.38334473 -7.44537109 -258.76668945 -7.89074219 -258.13134766 -8.34960938 C-183.73693287 -61.72785434 -74.85022878 -59.72367858 0 0 Z " fill="#203C67" transform="translate(392,87)"/>
<path d="M0 0 C3.48087079 3.44571048 4.12345874 7.83165443 5.1875 12.4375 C10.94946336 35.5076004 20.91246148 57.77979241 35 77 C35.76828125 78.051875 36.5365625 79.10375 37.328125 80.1875 C42.66209601 87.35850378 48.41427816 94.06163188 54.58789062 100.52050781 C55.5243456 101.5016484 56.45542231 102.48795247 57.38085938 103.47949219 C93.34877001 141.95856161 145.21712848 160.76981632 196.93359375 163.18359375 C245.47770832 164.08748197 294.42365889 147.05566974 331 115 C331.81339844 114.29617188 332.62679688 113.59234375 333.46484375 112.8671875 C336.01648182 110.61787622 338.5154441 108.32317236 341 106 C342.40378906 104.69482422 342.40378906 104.69482422 343.8359375 103.36328125 C363.05540874 85.07250198 377.60483363 61.37191015 387.9921875 37.07421875 C389 35 389 35 391 33 C397.14231015 32.3299298 397.14231015 32.3299298 400 34.5625 C401.71170465 38.73478009 400.61918173 42.40337084 399.04345703 46.46655273 C397.77274767 49.32058982 396.4357858 52.13137145 395.0625 54.9375 C394.56959473 55.95368408 394.07668945 56.96986816 393.56884766 58.0168457 C379.25555261 87.02588703 357.75119087 113.43703539 331.71484375 132.72509766 C330.05554449 133.95870539 328.41810396 135.21730975 326.78125 136.48046875 C282.24713401 170.21417441 224.65229791 181.43625834 170 175 C123.57724807 168.51806157 82.57788921 147.18912753 49 115 C48.05253906 114.10539062 47.10507813 113.21078125 46.12890625 112.2890625 C39.00091736 105.39361792 32.9078763 97.93674633 27 90 C26.36320312 89.14664063 25.72640625 88.29328125 25.0703125 87.4140625 C9.97225547 66.4715963 -0.89080444 42.964257 -8 18.1875 C-8.20778076 17.4773877 -8.41556152 16.76727539 -8.62963867 16.03564453 C-9.93230973 11.23657016 -10.31161714 6.97512876 -10 2 C-7.07721596 -1.70968744 -4.28951039 -1.36899268 0 0 Z " fill="#203C67" transform="translate(57,295)"/>
<path d="M0 0 C9.10562953 5.34379626 14.86380623 12.22782806 17.984375 22.4296875 C19.81356016 31.83169922 17.80535365 40.05260633 13.375 48.4375 C11.21697516 51.5153387 8.75961468 54.13745652 6.07763672 56.765625 C3.88650682 58.91716753 1.72804012 61.10008204 -0.43359375 63.28125 C-5.14249472 68.02187854 -9.87675294 72.73630829 -14.625 77.4375 C-20.57991499 72.47101988 -26.1605651 67.18666573 -31.6875 61.75 C-32.55955078 60.91533203 -33.43160156 60.08066406 -34.33007812 59.22070312 C-42.75734602 50.90826553 -48.66164712 42.36291509 -48.9375 30.3125 C-48.79912279 19.99186652 -45.39548814 13.09738552 -38.21875 5.7109375 C-27.41198873 -3.76125385 -13.1239526 -6.10148674 0 0 Z " fill="#D03F36" transform="translate(305.625,261.5625)"/>
<path d="M0 0 C0.7211499 0.00141495 1.4422998 0.0028299 2.18530273 0.00428772 C4.45691324 0.00982244 6.72842 0.02236202 9 0.03515625 C10.55338398 0.04017971 12.10676952 0.04474113 13.66015625 0.04882812 C17.44014328 0.05977036 21.22005414 0.07698865 25 0.09765625 C18.50333678 16.71835424 18.50333678 16.71835424 14.875 23.47265625 C14.50665039 24.16399658 14.13830078 24.85533691 13.75878906 25.56762695 C7.96780571 36.1253462 0.80256408 45.94245788 -7 55.09765625 C-8.14670384 54.24465857 -9.29228934 53.39015758 -10.4375 52.53515625 C-11.17613281 51.98472656 -11.91476562 51.43429687 -12.67578125 50.8671875 C-14.15106875 49.74398542 -15.60936411 48.59781456 -17.04296875 47.421875 C-24.45965965 41.36885334 -32.71896219 36.87166624 -41.16796875 32.43359375 C-46.21362869 29.77798326 -50.27361232 27.44510855 -54 23.09765625 C-54.33 22.76765625 -54.66 22.43765625 -55 22.09765625 C-55.5 19.41015625 -55.5 19.41015625 -55 16.09765625 C-47.49997197 5.54991364 -30.21566695 3.78712948 -18.44604492 1.49902344 C-12.25373087 0.48293757 -6.27573648 -0.04759552 0 0 Z " fill="#6ABF3C" transform="translate(390,311.90234375)"/>
<path d="M0 0 C4.10924148 3.72698646 7.13295417 7.35615406 8.13671875 12.93359375 C8.40146694 18.93150961 7.24559228 22.62926719 3.6875 27.4375 C-0.62040635 31.52448807 -4.229611 33.23262567 -10.125 33.8125 C-16.00818215 33.64568009 -20.52773154 31.17530087 -24.6875 27.125 C-27.7850835 22.00207345 -28.83523443 17.27923522 -27.84765625 11.421875 C-26.53347251 6.54884333 -24.31870592 3.23407969 -20.3125 0.0625 C-13.68117077 -3.52947 -6.79436798 -3.20489056 0 0 Z " fill="#D23E33" transform="translate(58.3125,240.5625)"/>
<path d="M0 0 C4.04556644 3.50615758 6.6827167 6.38425746 7.3359375 11.76953125 C7.4216643 18.44764894 7.20087615 22.69363013 3 28 C-1.79618319 32.33940384 -6.69908822 33.22433587 -13 33 C-18.86934792 32.0148621 -22.19953597 29.28068555 -25.87109375 24.71875 C-28.80889695 20.24597004 -28.43358661 15.13880431 -28 10 C-25.97271378 4.03076835 -22.0520051 0.64338736 -16.5625 -2.3125 C-10.32536851 -3.98587674 -5.63225206 -3.02472796 0 0 Z " fill="#D23E33" transform="translate(474,276)"/>
<path d="M0 0 C2.99417353 2.55385389 5.3603812 5.2832624 7.125 8.8125 C7.49469532 14.35792986 7.4542931 18.13068158 4.125 22.8125 C0.46417103 25.9373968 -2.71024404 27.65184401 -7.5 28.3125 C-12.58202051 27.55960807 -15.68814516 26.09558632 -19.1875 22.3125 C-22.29443001 17.70964072 -22.53896985 13.20725502 -21.875 7.8125 C-17.41060435 -1.11629131 -9.19900147 -3.79958756 0 0 Z " fill="#F1EEEE" transform="translate(297.875,278.1875)"/>
</svg>
